<svg xmlns="http://www.w3.org/2000/svg" viewBox="0 0 144.13 52.37"><defs><style>.cls-1{fill:#fff;}</style></defs><title>casino_logo_1</title><g id="图层_2" data-name="图层 2"><g id="图层_1-2" data-name="图层 1"><path class="cls-1" d="M60.3,28.17l3.08,1A6.83,6.83,0,0,1,61,32.91a6.71,6.71,0,0,1-4.17,1.24A6.82,6.82,0,0,1,51.7,32a8,8,0,0,1-2-5.78,8.44,8.44,0,0,1,2-6A7,7,0,0,1,57,18.08a6.61,6.61,0,0,1,4.69,1.68,6.12,6.12,0,0,1,1.6,2.86l-3.14.75A3.23,3.23,0,0,0,59,21.46a3.35,3.35,0,0,0-2.15-.7A3.61,3.61,0,0,0,54,22,6.08,6.08,0,0,0,53,26c0,2,.35,3.36,1.07,4.19a3.48,3.48,0,0,0,2.79,1.26,3.2,3.2,0,0,0,2.17-.8A4.55,4.55,0,0,0,60.3,28.17Z"/><path class="cls-1" d="M82.47,33.88H79l-1.38-3.53H71.36l-1.3,3.53H66.7l6.12-15.54h3.35Zm-5.85-6.15L74.46,22l-2.12,5.76Z"/><path class="cls-1" d="M85.54,28.83l3.09-.3a3.74,3.74,0,0,0,1.13,2.26,3.46,3.46,0,0,0,2.3.72,3.61,3.61,0,0,0,2.31-.64,1.91,1.91,0,0,0,.78-1.5,1.4,1.4,0,0,0-.33-.94,2.61,2.61,0,0,0-1.14-.67c-.37-.13-1.22-.36-2.54-.68a8.64,8.64,0,0,1-3.58-1.54,4,4,0,0,1-.77-5.35,4.23,4.23,0,0,1,2-1.57,8,8,0,0,1,3.1-.54,6.66,6.66,0,0,1,4.45,1.28,4.49,4.49,0,0,1,1.57,3.42l-3.17.14a2.65,2.65,0,0,0-.88-1.72,3.2,3.2,0,0,0-2-.53,3.6,3.6,0,0,0-2.16.57,1.12,1.12,0,0,0-.51,1,1.17,1.17,0,0,0,.48.94,8.2,8.2,0,0,0,2.91,1A15.89,15.89,0,0,1,96,25.3a4.34,4.34,0,0,1,1.73,1.58,4.84,4.84,0,0,1-.12,5,4.49,4.49,0,0,1-2.12,1.73,9,9,0,0,1-3.42.57,6.91,6.91,0,0,1-4.58-1.36A6,6,0,0,1,85.54,28.83Z"/><path class="cls-1" d="M103.09,33.88V18.34h3.17V33.88Z"/><path class="cls-1" d="M111.51,33.88V18.34h3.09L121,28.72V18.34h3V33.88H120.8l-6.34-10.13V33.88Z"/><path class="cls-1" d="M128.89,26.21a9.78,9.78,0,0,1,.72-4,7.16,7.16,0,0,1,1.46-2.13,6.17,6.17,0,0,1,2-1.4,8.73,8.73,0,0,1,3.39-.61,7.44,7.44,0,0,1,5.56,2.13,8.09,8.09,0,0,1,2.08,5.92A8.07,8.07,0,0,1,142.06,32a7.35,7.35,0,0,1-5.53,2.13A7.45,7.45,0,0,1,131,32,8,8,0,0,1,128.89,26.21Zm3.27-.11a5.77,5.77,0,0,0,1.23,4,4.26,4.26,0,0,0,6.25,0,5.89,5.89,0,0,0,1.21-4.05,5.82,5.82,0,0,0-1.18-4,4.43,4.43,0,0,0-6.31,0A5.82,5.82,0,0,0,132.16,26.1Z"/><polygon class="cls-1" points="36.85 34.32 36.85 34.37 22.68 42.55 8.5 34.37 8.5 18 22.68 9.82 36.85 18 36.85 18.05 45.35 13.14 45.35 13.09 22.68 0 0 13.09 0 39.28 22.68 52.37 45.35 39.28 45.35 39.23 36.85 34.32"/><path class="cls-1" d="M22.21,34.13l-3.32-10.7L17.1,31.06ZM28.33,31l-1.74-7.5L23.31,34Zm-2.17-8.27-3.43-4.81-3.37,4.78,3.37,10.92Z"/></g></g></svg>