<?xml version="1.0" encoding="utf-8"?>
<!-- Generator: Adobe Illustrator 23.0.0, SVG Export Plug-In . SVG Version: 6.00 Build 0)  -->
<svg version="1.1" id="图层_1" xmlns="http://www.w3.org/2000/svg" xmlns:xlink="http://www.w3.org/1999/xlink" x="0px" y="0px"
	 viewBox="0 0 200 200" style="enable-background:new 0 0 200 200;" xml:space="preserve">
<style type="text/css">
	.st0{fill:#FFFFFF;}
</style>
<path class="st0" d="M113.9,102.3L187.2,29c3.7-3.7,3.7-9.8,0-13.5l-0.4-0.4c-3.7-3.7-9.8-3.7-13.5,0L100,88.5L26.7,15.1
	c-3.7-3.7-9.8-3.7-13.5,0l-0.4,0.4C9,19.2,9,25.3,12.8,29l73.3,73.3l-73.3,73.3c-3.7,3.7-3.7,9.8,0,13.5l0.4,0.4
	c3.7,3.7,9.8,3.7,13.5,0l73.3-73.3l73.3,73.3c3.7,3.7,9.8,3.7,13.5,0l0.4-0.4c3.7-3.7,3.7-9.8,0-13.5L113.9,102.3z"/>
</svg>
