<?xml version="1.0" standalone="no"?><!DOCTYPE svg PUBLIC "-//W3C//DTD SVG 1.1//EN" "http://www.w3.org/Graphics/SVG/1.1/DTD/svg11.dtd"><svg t="1546400869965" class="icon" style="" viewBox="0 0 1024 1024" version="1.1" xmlns="http://www.w3.org/2000/svg" p-id="2369" xmlns:xlink="http://www.w3.org/1999/xlink" width="200" height="200"><defs><style type="text/css"></style></defs><path d="M129.024 542.208c-9.216-102.4 22.016-202.24 87.552-281.088s158.208-127.488 260.608-136.704c143.872-12.8 281.088 54.272 358.4 175.616l-423.424 423.424c-9.216 9.216-11.776 22.528-6.656 34.304 5.12 11.264 16.384 18.944 29.184 18.944l177.152-3.584c17.408-0.512 31.232-14.848 30.72-31.744 0-8.704-3.584-16.896-9.728-22.528-6.144-5.632-13.824-8.192-22.016-8.192l-99.84 2.048 386.048-386.048c9.728-9.728 11.776-25.088 5.12-37.376C816.128 135.168 647.168 46.08 471.04 61.44c-117.76 11.776-225.792 68.096-302.08 159.744C92.16 312.832 56.32 429.056 67.072 547.84c2.56 30.208 8.704 59.904 16.896 88.576 2.56 8.192 7.68 14.848 15.36 18.432 7.168 4.096 15.872 4.608 23.552 2.56 8.192-2.56 14.848-7.68 18.432-14.848 4.096-7.168 4.608-15.872 2.56-23.552-7.68-25.088-12.288-50.688-14.848-76.8zM957.44 467.456c-1.536-16.896-16.896-29.696-33.792-28.16-17.408 1.536-29.696 16.896-28.16 33.792 18.944 211.456-137.216 398.336-348.672 417.792-122.368 10.752-244.224-38.4-326.656-132.608L645.632 332.8c9.216-9.216 11.776-23.552 6.144-35.328-5.632-11.776-17.92-18.944-31.232-17.92l-178.176 15.872c-17.408 1.536-29.696 16.896-28.16 34.304s16.896 29.696 33.792 28.16l92.672-8.192-385.024 384.512c-10.752 10.752-12.288 28.672-2.56 40.96 85.504 112.64 220.672 179.712 360.448 179.712 12.8 0 26.112-0.512 38.912-1.536 245.248-22.528 427.008-240.128 404.992-485.888z" fill="#79ace2" p-id="2370"></path></svg>