<?xml version="1.0" encoding="utf-8"?>
<!-- Generator: Adobe Illustrator 23.0.0, SVG Export Plug-In . SVG Version: 6.00 Build 0)  -->
<svg version="1.1" id="图层_1" xmlns="http://www.w3.org/2000/svg" xmlns:xlink="http://www.w3.org/1999/xlink" x="0px" y="0px"
	 viewBox="0 0 200 200" style="enable-background:new 0 0 200 200;" xml:space="preserve">
<style type="text/css">
	.st0{fill:#FFFFFF;}
</style>
<path class="st0" d="M190.8,185.7c-1.3-32-22.6-58.9-51.8-68.4c17.3-8.5,29.2-26.3,29.2-46.8c0-28.9-23.4-52.3-52.3-52.3
	S63.6,41.6,63.6,70.5c0,20.6,11.9,38.3,29.2,46.8c-29.2,9.4-50.5,36.3-51.8,68.4c0,0.2-0.1,0.5-0.1,0.7c0,2.5,2,4.5,4.5,4.5
	c2.5,0,4.5-2,4.5-4.5h0.1c1.2-35.3,30.2-63.6,65.8-63.6s64.6,28.3,65.8,63.6h0.1c0,2.5,2,4.5,4.5,4.5c2.5,0,4.5-2,4.5-4.5
	C190.9,186.1,190.8,185.9,190.8,185.7z M72.7,70.5c0-23.8,19.3-43.2,43.2-43.2s43.2,19.3,43.2,43.2s-19.3,43.2-43.2,43.2
	S72.7,94.3,72.7,70.5z M67,114.5c-1.6-1.8-3.1-3.6-4.5-5.6C48,108.4,36.4,96.5,36.4,81.8c0-10.6,6.1-19.7,14.9-24.2
	c0.7-3.8,1.9-7.5,3.2-11c-15.6,4.1-27.2,18.2-27.2,35.2c0,13,6.9,24.4,17.1,30.8c-20.6,7.8-35.3,27.6-35.3,51c0,2.5,2,4.5,4.5,4.5
	s4.5-2,4.5-4.5c0-24.9,20-45.1,44.8-45.4C64.3,116.9,65.6,115.7,67,114.5z"/>
</svg>
