<?xml version="1.0" standalone="no"?><!DOCTYPE svg PUBLIC "-//W3C//DTD SVG 1.1//EN" "http://www.w3.org/Graphics/SVG/1.1/DTD/svg11.dtd"><svg t="1547113078271" class="icon" style="" viewBox="0 0 1024 1024" version="1.1" xmlns="http://www.w3.org/2000/svg" p-id="7833" xmlns:xlink="http://www.w3.org/1999/xlink" width="32" height="32"><defs><style type="text/css"></style></defs><path d="M84.423 939.59c112.546 112.543 295.040 112.543 407.592 0 84.153-84.156 105.341-207.403 63.64-311.282 2.033-1.266 3.973-2.713 5.706-4.456l439.986-439.986c12.453-12.46 22.64-37.040 22.639-54.66v-97.246c0-17.607-14.413-31.993-32.027-31.961l-97.38 0.173c-17.613 0.034-32.026 14.46-32.026 32.067v93.62c0 17.62-14.407 32.020-32.020 32.020h-93.607c-17.606 0-32.040 14.42-32.073 32.026l-0.153 93.867c-0.033 17.606-14.467 32.020-32.073 32.021h-93.612c-17.62 0-42.22 10.18-54.667 22.639l-124.18 124.2c-1.753 1.74-3.193 3.672-4.44 5.68-103.892-41.687-227.138-20.5-311.292 63.653-112.552 112.572-112.552 295.075-0.013 407.624zM118.383 747.114c43.767-43.76 114.739-43.76 158.506 0 43.753 43.76 43.753 114.739 0 158.499-43.766 43.756-114.74 43.756-158.506 0-43.766-43.76-43.766-114.74 0-158.499z" fill="#6a72ad" p-id="7834"></path></svg>