<?xml version="1.0" encoding="utf-8"?>
<!-- Generator: Adobe Illustrator 23.0.0, SVG Export Plug-In . SVG Version: 6.00 Build 0)  -->
<svg version="1.1" id="图层_1" xmlns="http://www.w3.org/2000/svg" xmlns:xlink="http://www.w3.org/1999/xlink" x="0px" y="0px"
	 viewBox="0 0 72 72" style="enable-background:new 0 0 72 72;" xml:space="preserve">
<style type="text/css">
	.st0{fill:#FFFFFF;}
</style>
<title>lottery_logo</title>
<g>
	<g id="图层_1-2">
		<path class="st0" d="M65.1,38.2c-0.5,6.2-2.9,12.1-7,16.8l5,4.7c5.2-5.9,8.3-13.4,8.9-21.3C72,38.4,65.1,38.2,65.1,38.2z"/>
		<polygon points="38.2,6.9 38.2,6.9 38.2,6.9 		"/>
		<path class="st0" d="M38.2,65.1l0.2,6.9c7.9-0.5,15.4-3.6,21.4-8.8l-4.7-5C50.3,62.2,44.4,64.7,38.2,65.1z"/>
		<path class="st0" d="M13.8,55c-4.1-4.7-6.5-10.6-7-16.8L0,38.4c0.5,7.9,3.6,15.4,8.8,21.4L13.8,55L13.8,55z"/>
		<g>
			<path class="st0" d="M38.4,0l-0.2,6.9c6.2,0.5,12.1,2.9,16.8,7l4.7-5C53.8,3.6,46.3,0.5,38.4,0z"/>
			<path class="st0" d="M0,33.6l6.9,0.2c0.5-6.2,2.9-12.1,7-16.8l-5-4.7C3.6,18.2,0.5,25.7,0,33.6z"/>
			<path class="st0" d="M12.3,8.8l4.7,5c4.7-4.1,10.6-6.5,16.8-7L33.6,0C25.7,0.5,18.2,3.6,12.3,8.8z"/>
			<path class="st0" d="M63.2,12.2l-5,4.7c4.1,4.7,6.5,10.6,7,16.8l6.9-0.2C71.5,25.7,68.4,18.2,63.2,12.2z"/>
		</g>
		<path class="st0" d="M17,58.2l-4.7,5c5.9,5.2,13.4,8.3,21.3,8.8l0.2-6.9l0,0C27.6,64.7,21.7,62.2,17,58.2z"/>
		<path class="st0" d="M44.6,30.6l-8.1-11.3l-8,11.2l-3.4,16.2l11.4,7l11.4-7L44.6,30.6z M28,45.5l2-9.8l4.5,13.8L28,45.5z
			 M31.2,31.1l5.3-7.4l5.3,7.4l-5.3,16.2L31.2,31.1z M43.1,35.7l2,9.8l-6.5,4L43.1,35.7z"/>
	</g>
</g>
</svg>
