<svg xmlns="http://www.w3.org/2000/svg" viewBox="0 0 72 72"><defs><style>.cls-1{fill:#fff;}.cls-2{fill:#ff8523;}</style></defs><title>lottery_logo</title><g id="图层_2" data-name="图层 2"><g id="图层_1-2" data-name="图层 1"><path class="cls-1" d="M59.75,8.84A36,36,0,0,0,38.4,0l-.19,6.86a29.09,29.09,0,0,1,16.82,7Z"/><path class="cls-1" d="M13.84,17l-5-4.71A35.89,35.89,0,0,0,0,33.6l6.86.2A29.08,29.08,0,0,1,13.84,17Z"/><path class="cls-1" d="M33.8,6.87,33.6,0A35.94,35.94,0,0,0,12.25,8.85l4.72,5A29.07,29.07,0,0,1,33.8,6.87Z"/><path class="cls-1" d="M65.14,38.21a29.09,29.09,0,0,1-7,16.82l5,4.71A35.89,35.89,0,0,0,72,38.4l-6.86-.19Z"/><polygon points="38.2 6.86 38.2 6.87 38.2 6.86 38.2 6.86"/><path class="cls-1" d="M38.2,65.13,38.4,72a36,36,0,0,0,21.36-8.84l-4.73-5A29.07,29.07,0,0,1,38.2,65.13Z"/><path class="cls-1" d="M13.84,55a29.06,29.06,0,0,1-7-16.84L0,38.4A35.9,35.9,0,0,0,8.84,59.76l5-4.71Z"/><path class="cls-1" d="M65.14,33.79,72,33.6a35.9,35.9,0,0,0-8.84-21.36l-5,4.72A29.13,29.13,0,0,1,65.14,33.79Z"/><path class="cls-1" d="M17,58.15l-4.72,5A36,36,0,0,0,33.6,72l.2-6.86h0A29.09,29.09,0,0,1,17,58.15Z"/><path class="cls-2" d="M44.64,30.61l-8.1-11.34-8,11.22-3.38,16.2,11.4,7,11.4-7ZM28,45.45l2-9.76,4.5,13.75Zm3.22-14.31,5.31-7.41,5.3,7.41-5.3,16.24Zm11.86,4.55,2,9.76-6.49,4Z"/></g></g></svg>