<?xml version="1.0" standalone="no"?><!DOCTYPE svg PUBLIC "-//W3C//DTD SVG 1.1//EN" "http://www.w3.org/Graphics/SVG/1.1/DTD/svg11.dtd"><svg t="1547797921761" class="icon" style="" viewBox="0 0 1024 1024" version="1.1" xmlns="http://www.w3.org/2000/svg" p-id="5139" xmlns:xlink="http://www.w3.org/1999/xlink" width="200" height="200"><defs><style type="text/css"></style></defs><path d="M778.566964 467.197063A289.370335 289.370335 0 1 0 957.160399 734.555467a289.370335 289.370335 0 0 0-178.593435-267.358404zM816.185107 767.944352h-113.151221l-0.19786 113.423278h-63.661473V767.944352h-112.928629v-64.007729h113.126489v-113.448011h63.661473v113.448011H816.185107zM830.010579 424.038838v-84.090525c0 25.771273-10.437118 49.094027-28.788639 69.720938 10.016665 4.056131 19.217158 9.423085 28.788639 14.369587zM448.363259 447.955172c8.18646 0 15.903002-0.915103 23.866869-1.18716a346.255102 346.255102 0 0 1 198.824626-62.795836c17.535348 0 34.477115 2.695843 51.369418 5.193826 66.38205-34.62551 107.586407-81.394682 107.536942-133.209284V192.023187C829.961114 85.945463 659.133686 0 448.363259 0S66.790136 85.945463 66.790136 192.023187v63.958264c0 106.052991 170.802695 191.973722 381.573123 191.973721z" p-id="5140" fill="#ff6244"></path><path d="M404.685651 510.231626C214.814192 501.624713 66.790136 438.482622 66.913799 339.997778v107.907929c0 86.786368 115.055624 159.178417 272.05758 183.020554a349.148806 349.148806 0 0 1 65.714272-120.694635z" p-id="5141" fill="#ff6244"></path><path d="M66.913799 531.9715v107.982127c0 85.648673 112.260851 157.323479 266.195976 182.105451a349.964978 349.964978 0 0 1-11.797406-86.093858c0-13.973867 2.473251-27.205758 3.981933-40.808637C175.341111 674.480207 66.790136 616.185687 66.913799 531.9715z" p-id="5142" fill="#ff6244"></path><path d="M358.633722 891.310098C191.41724 875.184504 66.790136 814.342536 66.790136 723.945221v108.081057C66.790136 938.029805 237.667029 1023.925802 448.412724 1023.925802c7.172427 0 13.973867-0.89037 21.096828-1.08823A351.201604 351.201604 0 0 1 358.633722 891.310098z" p-id="5143" fill="#ff6244"></path></svg>