<?xml version="1.0" standalone="no"?><!DOCTYPE svg PUBLIC "-//W3C//DTD SVG 1.1//EN" "http://www.w3.org/Graphics/SVG/1.1/DTD/svg11.dtd"><svg t="1547113500022" class="icon" style="" viewBox="0 0 1024 1024" version="1.1" xmlns="http://www.w3.org/2000/svg" p-id="15180" xmlns:xlink="http://www.w3.org/1999/xlink" width="32" height="32"><defs><style type="text/css"></style></defs><path d="M750.933333 0C807.253333 0 853.333333 43.178667 853.333333 96v832c0 52.821333-46.08 96-102.4 96H273.066667C216.746667 1024 170.666667 980.821333 170.666667 928V96C170.666667 43.178667 216.746667 0 273.066667 0h477.866666zM415.488 42.666667c-9.557333 0-17.28 9.557333-17.28 21.333333s7.722667 21.333333 17.28 21.333333h193.024c9.557333 0 17.28-9.557333 17.28-21.333333s-7.722667-21.333333-17.28-21.333333H415.488zM512 981.333333c37.674667 0 68.266667-28.672 68.266667-64 0-35.370667-30.592-64-68.266667-64-37.717333 0-68.266667 28.629333-68.266667 64 0 35.328 30.549333 64 68.266667 64z m-253.141333-213.333333h512V128h-512v640z" p-id="15181" fill="#6a72ad"></path></svg>