<?xml version="1.0" standalone="no"?><!DOCTYPE svg PUBLIC "-//W3C//DTD SVG 1.1//EN" "http://www.w3.org/Graphics/SVG/1.1/DTD/svg11.dtd"><svg t="1548151155163" class="icon" style="" viewBox="0 0 1024 1024" version="1.1" xmlns="http://www.w3.org/2000/svg" p-id="37125" xmlns:xlink="http://www.w3.org/1999/xlink" width="200" height="200"><defs><style type="text/css"></style></defs><path d="M824.478 909.266h-612.975c-14.456 0-27.468-2.946-40.479-8.834s-24.577-13.252-33.25-22.086c-10.119-8.834-17.348-20.612-23.131-33.863-5.783-13.252-8.674-26.501-8.674-42.697v-428.447c0-29.446 10.119-54.476 30.359-75.088 20.241-20.613 44.817-30.919 73.73-30.919h612.975c28.914 0 53.491 10.306 73.73 30.919 20.241 20.612 30.359 45.642 30.359 75.088v144.288h-219.746c-14.456 0-26.023 4.418-36.142 14.723s-14.456 20.612-14.456 35.336c0 10.306 2.891 20.612 5.782 27.974 2.891 5.888 7.229 11.779 14.456 17.668 5.782 4.418 15.903 5.888 28.914 5.888h218.3v184.041c0 14.723-2.891 27.974-7.229 41.225s-11.566 23.558-21.685 33.863c-8.674 10.306-20.241 17.668-31.806 23.558-11.566 4.417-24.577 7.361-39.034 7.361v0zM208.612 323.28c-14.456 0-26.022 4.417-34.697 14.723-10.119 10.306-14.456 22.085-14.456 35.336v429.92c0 7.361 1.446 13.252 4.338 19.14s7.229 11.779 11.566 16.195c4.338 4.418 10.119 8.834 17.348 11.779 4.338 2.946 11.566 4.417 18.794 4.417h612.975c7.229 0 13.012-1.472 18.794-4.417s10.119-5.888 14.456-10.306c4.338-4.417 7.229-10.306 10.119-16.195 2.891-5.888 2.891-13.252 2.891-20.612v-129.564h-163.364c-26.023 0-46.262-5.888-62.165-17.668-14.456-10.306-24.577-23.557-30.359-36.808-7.229-14.723-11.566-30.919-11.566-50.059v-1.472c0-29.446 10.119-54.476 30.359-75.088 20.241-20.613 44.817-30.919 73.73-30.919h164.809v-89.812c0-14.723-4.338-26.501-14.456-35.336-10.119-10.306-21.685-14.723-34.697-14.723h-614.421v1.472zM444.26 264.387l-24.577-48.587c13.012-7.361 26.022-14.723 39.034-20.612l13.012 25.029-14.456-26.501c5.782-2.946 10.119-5.888 15.903-8.834 24.577-13.252 47.707-25.029 70.839-38.28 23.131-13.252 41.926-22.086 54.936-29.446 23.131-13.252 46.262-19.14 66.503-17.668 18.794 1.472 34.697 4.418 47.708 10.306l1.446 1.472c15.903 7.361 28.914 17.668 40.479 30.919l2.891 2.946 36.143 70.671-47.708 25.029-33.251-64.782c-5.783-5.888-13.012-11.779-21.685-16.195-7.229-2.946-17.347-4.417-28.914-5.888-10.119 0-23.131 2.946-39.034 11.779-13.012 7.361-31.805 16.195-54.936 29.446-23.131 13.252-46.262 25.029-70.839 38.28-4.338 2.946-10.119 5.888-15.903 8.834-11.566 7.362-24.577 14.723-37.588 22.086v0zM678.463 569.158c0-8.834 2.891-16.195 8.674-22.085 5.782-5.888 13.012-8.834 21.685-8.834 8.674 0 15.903 2.946 21.685 8.834 5.782 5.888 8.674 13.252 8.674 22.085 0 8.834-2.891 16.195-8.674 22.085-5.783 5.888-13.012 8.834-21.685 8.834-8.674 0-15.903-2.946-21.685-8.834-5.782-5.888-8.674-13.252-8.674-22.085v0 0zM708.823 603.022c-8.674 0-17.347-2.946-24.577-10.306-7.229-7.362-10.119-14.723-10.119-25.029 0-8.834 2.891-17.668 10.119-25.029 5.782-5.888 14.456-10.306 24.577-10.306 8.674 0 17.347 2.946 24.577 10.306 5.782 5.888 10.119 14.723 10.119 25.029 0 8.834-2.891 17.668-10.119 25.029-7.229 7.362-15.903 10.306-24.577 10.306v0zM708.823 541.184c-7.229 0-14.456 2.946-18.794 7.361-4.338 4.418-7.229 11.779-7.229 19.14 0 7.361 2.891 14.723 7.229 19.14 4.338 4.418 11.566 7.362 18.794 7.362 7.229 0 14.456-2.946 18.794-7.362 4.338-4.418 7.229-11.779 7.229-19.14 0-7.361-2.891-14.723-7.229-19.14-4.338-4.418-11.566-7.361-18.794-7.361v0z" p-id="37126" fill="#ffffff"></path></svg>