<svg xmlns="http://www.w3.org/2000/svg" xmlns:xlink="http://www.w3.org/1999/xlink" preserveAspectRatio="xMidYMid" width="207" height="199.344" viewBox="0 0 207 199.344">
  <defs>
    <style>
      .cls-1 {
        fill: #fff;
        fill-rule: evenodd;
      }
    </style>
  </defs>
  <path d="M159.500,199.344 C133.266,199.344 112.000,178.077 112.000,151.844 C112.000,125.610 133.266,104.344 159.500,104.344 C185.734,104.344 207.000,125.610 207.000,151.844 C207.000,178.077 185.734,199.344 159.500,199.344 ZM159.500,114.344 C138.789,114.344 122.000,131.133 122.000,151.844 C122.000,172.554 138.789,189.344 159.500,189.344 C180.211,189.344 197.000,172.554 197.000,151.844 C197.000,131.133 180.211,114.344 159.500,114.344 ZM177.923,157.420 L166.077,157.420 L166.077,169.267 C166.077,172.070 163.804,174.343 161.000,174.343 C158.196,174.343 155.923,172.070 155.923,169.267 L155.923,157.420 L144.077,157.420 C141.273,157.420 139.000,155.147 139.000,152.344 C139.000,149.540 141.273,147.267 144.077,147.267 L155.923,147.267 L155.923,135.421 C155.923,132.617 158.196,130.344 161.000,130.344 C163.804,130.344 166.077,132.617 166.077,135.421 L166.077,147.267 L177.923,147.267 C180.727,147.267 183.000,149.540 183.000,152.344 C183.000,155.147 180.727,157.420 177.923,157.420 ZM154.000,91.344 C154.000,91.344 158.333,81.510 156.000,74.344 C156.000,74.344 155.167,74.344 153.000,76.344 C153.000,76.344 80.517,121.902 14.000,73.344 C14.000,73.344 7.667,89.677 27.000,102.344 C27.000,102.344 60.500,123.844 110.000,113.344 L110.000,114.344 C110.000,114.344 103.500,124.510 103.000,127.344 C103.000,127.344 48.500,136.677 15.000,107.344 C15.000,107.344 8.167,119.010 23.000,132.344 C23.000,132.344 42.833,152.844 99.000,149.344 C99.000,149.344 98.833,159.677 100.000,162.344 C100.000,162.344 40.500,166.510 14.000,141.344 C14.000,141.344 1.667,171.677 65.000,182.344 C65.000,182.344 93.500,185.177 108.000,181.344 L116.000,192.344 C116.000,192.344 51.333,207.510 14.000,174.344 C14.000,174.344 1.833,167.510 0.000,148.344 L0.000,45.344 C0.000,45.344 0.000,6.344 74.000,0.344 C74.000,0.344 151.500,-6.490 170.000,42.344 L170.000,92.344 C170.000,92.344 158.333,90.677 154.000,91.344 ZM84.500,11.344 C45.012,11.344 13.000,27.462 13.000,47.344 C13.000,67.226 45.012,83.344 84.500,83.344 C123.988,83.344 156.000,67.226 156.000,47.344 C156.000,27.462 123.988,11.344 84.500,11.344 Z" class="cls-1"/>
</svg>
