<?xml version="1.0" encoding="utf-8"?>
<!-- Generator: Adobe Illustrator 23.0.0, SVG Export Plug-In . SVG Version: 6.00 Build 0)  -->
<svg version="1.1" id="组_42" xmlns="http://www.w3.org/2000/svg" xmlns:xlink="http://www.w3.org/1999/xlink" x="0px" y="0px"
	 viewBox="0 0 147 147" style="enable-background:new 0 0 147 147;" xml:space="preserve">
<style type="text/css">
	.st0{fill:#FFFFFF;}
</style>
<g id="椭圆_2035">
	<path class="st0" d="M73.5,146C33.5,146,1,113.5,1,73.5S33.5,1,73.5,1S146,33.5,146,73.5S113.5,146,73.5,146z M73.5,2
		C34.1,2,2,34.1,2,73.5C2,112.9,34.1,145,73.5,145c39.4,0,71.5-32.1,71.5-71.5C145,34.1,112.9,2,73.5,2z"/>
</g>
<path class="st0" d="M76.5,73.3l18.8-18.8c0.9-0.9,0.9-2.5,0-3.5L95.2,51c-0.9-0.9-2.5-0.9-3.5,0L73,69.8L54.2,51
	c-0.9-0.9-2.5-0.9-3.5,0l-0.1,0.1c-1,0.9-1,2.5,0,3.5l18.8,18.8L50.7,92.1c-0.9,0.9-0.9,2.5,0,3.5l0.1,0.1c0.9,0.9,2.5,0.9,3.5,0
	L73,76.9l18.8,18.8c0.9,0.9,2.5,0.9,3.5,0l0.1-0.1c0.9-0.9,0.9-2.5,0-3.5L76.5,73.3z"/>
</svg>
