<?xml version="1.0" standalone="no"?><!DOCTYPE svg PUBLIC "-//W3C//DTD SVG 1.1//EN" "http://www.w3.org/Graphics/SVG/1.1/DTD/svg11.dtd"><svg t="1546072852061" class="icon" style="" viewBox="0 0 1024 1024" version="1.1" xmlns="http://www.w3.org/2000/svg" p-id="11235" xmlns:xlink="http://www.w3.org/1999/xlink" width="200" height="200"><defs><style type="text/css"></style></defs><path d="M842.24 389.12H517.12c-28.16 0-53.76 23.04-53.76 53.76V512h-153.6v-184.32h225.28c28.16 0 53.76-23.04 53.76-53.76V104.96C586.24 74.24 563.2 51.2 532.48 51.2H207.36C176.64 51.2 153.6 74.24 153.6 104.96v171.52c0 28.16 23.04 53.76 53.76 53.76h40.96v552.96H460.8V921.6c0 28.16 23.04 53.76 53.76 53.76h327.68c28.16 0 53.76-23.04 53.76-53.76v-171.52c0-28.16-23.04-53.76-53.76-53.76H517.12c-28.16 0-53.76 23.04-53.76 53.76V819.2h-153.6v-245.76h153.6v38.4c0 28.16 23.04 53.76 53.76 53.76H844.8c28.16 0 53.76-23.04 53.76-53.76v-171.52c-2.56-28.16-25.6-51.2-56.32-51.2zM243.2 266.24c-15.36 0-25.6-12.8-25.6-25.6v-102.4c0-15.36 12.8-25.6 25.6-25.6h256c15.36 0 25.6 12.8 25.6 25.6v99.84c0 15.36-12.8 25.6-25.6 25.6h-256z m281.6 619.52v-99.84c0-15.36 12.8-25.6 25.6-25.6h256c15.36 0 25.6 12.8 25.6 25.6v99.84c0 15.36-12.8 25.6-25.6 25.6h-256c-12.8 0-25.6-12.8-25.6-25.6z m309.76-409.6v99.84c0 15.36-12.8 25.6-25.6 25.6h-256c-15.36 0-25.6-12.8-25.6-25.6v-99.84c0-15.36 12.8-25.6 25.6-25.6h256c12.8 0 25.6 12.8 25.6 25.6z" p-id="11236" fill="#ffffff"></path></svg>