<?xml version="1.0" encoding="utf-8"?>
<!-- Generator: Adobe Illustrator 23.0.0, SVG Export Plug-In . SVG Version: 6.00 Build 0)  -->
<svg version="1.1" id="图层_1" xmlns="http://www.w3.org/2000/svg" xmlns:xlink="http://www.w3.org/1999/xlink" x="0px" y="0px"
	 viewBox="0 0 200 200" style="enable-background:new 0 0 200 200;" xml:space="preserve">
<style type="text/css">
	.st0{fill:#FFFFFF;}
</style>
<path class="st0" d="M62.5,112.5V150h100v-37.5H62.5z M155.8,143.3H69.2v-24.2h86.7L155.8,143.3z"/>
<path class="st0" d="M62.5,59.6h99.2c1.8,0,3.3-1.5,3.3-3.3c0-1.8-1.5-3.3-3.3-3.3H62.5c-1.8,0-3.3,1.5-3.3,3.3
	C59.2,58.1,60.7,59.6,62.5,59.6z"/>
<path class="st0" d="M161.7,77.9H62.5c-1.8,0-3.3,1.5-3.3,3.3s1.5,3.3,3.3,3.3h99.2c1.8,0,3.3-1.5,3.3-3.3S163.6,77.9,161.7,77.9z"
	/>
<path class="st0" d="M26.7,0v46.7H0V200h26.7h6.7H200V0H26.7z M6.7,193.3v-140h20v140H6.7z M193.3,193.3h-160V46.7v-40h160
	L193.3,193.3L193.3,193.3z"/>
</svg>
